{
    "asset" : {
        "generator" : "Khronos glTF Blender I/O v1.4.40",
        "version" : "2.0"
    },
    "scene" : 0,
    "scenes" : [
        {
            "name" : "Scene",
            "nodes" : [
                0,
                1,
                2,
                3,
                4
            ]
        }
    ],
    "nodes" : [
        {
            "name" : "Light",
            "rotation" : [
                0.16907575726509094,
                0.7558803558349609,
                -0.27217137813568115,
                0.570947527885437
            ],
            "translation" : [
                4.076245307922363,
                5.903861999511719,
                -1.0054539442062378
            ]
        },
        {
            "name" : "Camera",
            "rotation" : [
                0.483536034822464,
                0.33687159419059753,
                -0.20870360732078552,
                0.7804827094078064
            ],
            "translation" : [
                7.358891487121582,
                4.958309173583984,
                6.925790786743164
            ]
        },
        {
            "mesh" : 0,
            "name" : "Chair02",
            "rotation" : [
                0.7071068286895752,
                0,
                0,
                0.7071067094802856
            ],
            "scale" : [
                0.009999999776482582,
                0.009999999776482582,
                0.009999999776482582
            ],
            "translation" : [
                2.009756565093994,
                0.8397043943405151,
                0.0019766793120652437
            ]
        },
        {
            "mesh" : 1,
            "name" : "Chair01",
            "rotation" : [
                0.7071068286895752,
                0,
                0,
                0.7071067094802856
            ],
            "scale" : [
                0.009999999776482582,
                0.009999999776482582,
                0.009999999776482582
            ],
            "translation" : [
                -2.0097556114196777,
                0.8397045135498047,
                0.0019766793120652437
            ]
        },
        {
            "mesh" : 2,
            "name" : "Stage1",
            "rotation" : [
                0.7071068286895752,
                0,
                0,
                0.7071067094802856
            ],
            "scale" : [
                0.009999999776482582,
                0.009999999776482582,
                0.009999999776482582
            ],
            "translation" : [
                2.9806967631884618e-06,
                5.172443866729736,
                -0.2545810043811798
            ]
        }
    ],
    "materials" : [
        {
            "doubleSided" : true,
            "name" : "Stage_Mate",
            "pbrMetallicRoughness" : {
                "baseColorTexture" : {
                    "index" : 0,
                    "texCoord" : 0
                },
                "metallicFactor" : 0
            }
        },
        {
            "doubleSided" : true,
            "name" : "Screen_Mate",
            "pbrMetallicRoughness" : {
                "baseColorTexture" : {
                    "index" : 1,
                    "texCoord" : 0
                },
                "metallicFactor" : 0
            }
        }
    ],
    "meshes" : [
        {
            "name" : "Mesh",
            "primitives" : [
                {
                    "attributes" : {
                        "POSITION" : 0,
                        "NORMAL" : 1,
                        "TEXCOORD_0" : 2
                    },
                    "indices" : 3,
                    "material" : 0
                }
            ]
        },
        {
            "name" : "Mesh.001",
            "primitives" : [
                {
                    "attributes" : {
                        "POSITION" : 4,
                        "NORMAL" : 5,
                        "TEXCOORD_0" : 6
                    },
                    "indices" : 7,
                    "material" : 0
                }
            ]
        },
        {
            "name" : "Mesh.002",
            "primitives" : [
                {
                    "attributes" : {
                        "POSITION" : 8,
                        "NORMAL" : 9,
                        "TEXCOORD_0" : 10
                    },
                    "indices" : 11,
                    "material" : 0
                },
                {
                    "attributes" : {
                        "POSITION" : 12,
                        "NORMAL" : 13,
                        "TEXCOORD_0" : 14
                    },
                    "indices" : 15,
                    "material" : 1
                }
            ]
        }
    ],
    "textures" : [
        {
            "sampler" : 0,
            "source" : 0
        },
        {
            "sampler" : 0,
            "source" : 1
        }
    ],
    "images" : [
        {
            "bufferView" : 4,
            "mimeType" : "image/jpeg",
            "name" : "Stage_Diffuse"
        },
        {
            "bufferView" : 17,
            "mimeType" : "image/jpeg",
            "name" : "Screen_Diffuse"
        }
    ],
    "accessors" : [
        {
            "bufferView" : 0,
            "componentType" : 5126,
            "count" : 819,
            "max" : [
                47.026031494140625,
                57.521705627441406,
                83.97047424316406
            ],
            "min" : [
                -64.47921752929688,
                -57.917015075683594,
                -84.71223449707031
            ],
            "type" : "VEC3"
        },
        {
            "bufferView" : 1,
            "componentType" : 5126,
            "count" : 819,
            "type" : "VEC3"
        },
        {
            "bufferView" : 2,
            "componentType" : 5126,
            "count" : 819,
            "type" : "VEC2"
        },
        {
            "bufferView" : 3,
            "componentType" : 5123,
            "count" : 2064,
            "type" : "SCALAR"
        },
        {
            "bufferView" : 5,
            "componentType" : 5126,
            "count" : 819,
            "max" : [
                64.479248046875,
                57.521705627441406,
                83.9704818725586
            ],
            "min" : [
                -47.0260009765625,
                -57.917015075683594,
                -84.71222686767578
            ],
            "type" : "VEC3"
        },
        {
            "bufferView" : 6,
            "componentType" : 5126,
            "count" : 819,
            "type" : "VEC3"
        },
        {
            "bufferView" : 7,
            "componentType" : 5126,
            "count" : 819,
            "type" : "VEC2"
        },
        {
            "bufferView" : 8,
            "componentType" : 5123,
            "count" : 2064,
            "type" : "SCALAR"
        },
        {
            "bufferView" : 9,
            "componentType" : 5126,
            "count" : 452,
            "max" : [
                2259.437744140625,
                2284.896484375,
                517.2454833984375
            ],
            "min" : [
                -2259.438720703125,
                -2233.98046875,
                -684.7994384765625
            ],
            "type" : "VEC3"
        },
        {
            "bufferView" : 10,
            "componentType" : 5126,
            "count" : 452,
            "type" : "VEC3"
        },
        {
            "bufferView" : 11,
            "componentType" : 5126,
            "count" : 452,
            "type" : "VEC2"
        },
        {
            "bufferView" : 12,
            "componentType" : 5123,
            "count" : 1014,
            "type" : "SCALAR"
        },
        {
            "bufferView" : 13,
            "componentType" : 5126,
            "count" : 8,
            "max" : [
                99.00812530517578,
                63.78368377685547,
                398.048583984375
            ],
            "min" : [
                -99.00872039794922,
                -12.867311477661133,
                353.38629150390625
            ],
            "type" : "VEC3"
        },
        {
            "bufferView" : 14,
            "componentType" : 5126,
            "count" : 8,
            "type" : "VEC3"
        },
        {
            "bufferView" : 15,
            "componentType" : 5126,
            "count" : 8,
            "type" : "VEC2"
        },
        {
            "bufferView" : 16,
            "componentType" : 5123,
            "count" : 12,
            "type" : "SCALAR"
        }
    ],
    "bufferViews" : [
        {
            "buffer" : 0,
            "byteLength" : 9828,
            "byteOffset" : 0
        },
        {
            "buffer" : 0,
            "byteLength" : 9828,
            "byteOffset" : 9828
        },
        {
            "buffer" : 0,
            "byteLength" : 6552,
            "byteOffset" : 19656
        },
        {
            "buffer" : 0,
            "byteLength" : 4128,
            "byteOffset" : 26208
        },
        {
            "buffer" : 0,
            "byteLength" : 124692,
            "byteOffset" : 30336
        },
        {
            "buffer" : 0,
            "byteLength" : 9828,
            "byteOffset" : 155028
        },
        {
            "buffer" : 0,
            "byteLength" : 9828,
            "byteOffset" : 164856
        },
        {
            "buffer" : 0,
            "byteLength" : 6552,
            "byteOffset" : 174684
        },
        {
            "buffer" : 0,
            "byteLength" : 4128,
            "byteOffset" : 181236
        },
        {
            "buffer" : 0,
            "byteLength" : 5424,
            "byteOffset" : 185364
        },
        {
            "buffer" : 0,
            "byteLength" : 5424,
            "byteOffset" : 190788
        },
        {
            "buffer" : 0,
            "byteLength" : 3616,
            "byteOffset" : 196212
        },
        {
            "buffer" : 0,
            "byteLength" : 2028,
            "byteOffset" : 199828
        },
        {
            "buffer" : 0,
            "byteLength" : 96,
            "byteOffset" : 201856
        },
        {
            "buffer" : 0,
            "byteLength" : 96,
            "byteOffset" : 201952
        },
        {
            "buffer" : 0,
            "byteLength" : 64,
            "byteOffset" : 202048
        },
        {
            "buffer" : 0,
            "byteLength" : 24,
            "byteOffset" : 202112
        },
        {
            "buffer" : 0,
            "byteLength" : 14078,
            "byteOffset" : 202136
        }
    ],
    "samplers" : [
        {
            "magFilter" : 9729,
            "minFilter" : 9986
        }
    ],
    "buffers" : [
        {
            "byteLength" : 216216,
            "uri" : "data:application/octet-stream;base64,"
        }
    ]
}
